<?xml version="1.0" encoding="utf-8"?>
<!-- Generator: Adobe Illustrator 16.0.0, SVG Export Plug-In . SVG Version: 6.00 Build 0)  -->
<!DOCTYPE svg PUBLIC "-//W3C//DTD SVG 1.1//EN" "http://www.w3.org/Graphics/SVG/1.1/DTD/svg11.dtd">
<svg version="1.1" id="Layer_1" xmlns="http://www.w3.org/2000/svg" xmlns:xlink="http://www.w3.org/1999/xlink" x="0px" y="0px"
	 width="79.375px" height="103.625px" viewBox="0 0 79.375 103.625" enable-background="new 0 0 79.375 103.625"
	 xml:space="preserve">
<path fill="#0905CA" d="M39.548,58.915c-8.894,0-16.106,8.171-16.106,18.25c0,10.078,7.212,18.25,16.106,18.25
	c8.897,0,16.109-8.172,16.109-18.25C55.658,67.085,48.446,58.915,39.548,58.915"/>
<path fill="#0905CA" d="M46.332,26.468c0,0,0.56-0.332,1.502-0.391c0.943-0.059,7.07-14.021,7.07-14.021s-3.417-3.182-4.771-4.124
	c-1.355-0.943-17.499-3.358-17.499-3.358l-9.191,7.365l8.484,12.843l6.54,11.666L46.332,26.468z"/>
<path fill="#F8F8F8" d="M38.424,26.149c1.355-5.552,6.907-11.104,6.907-11.104c-0.609-1.422-18.553-2.302-18.553-2.302
	c1.032-4.735,6.026-6.907,6.026-6.907s3.144,2.433,5.491,3.242c2.482,0.856,6.02,1.633,9.405,1.227
	c1.989-0.239,4.048-0.08,5.408,0.092c-0.587-0.519-1.205-1.059-1.864-1.626c-8.532-7.355-10.298-7.944-16.329-7.797
	c-6.032,0.147-16.476,5.443-13.387,17.064c3.089,11.622,4.561,14.417,3.825,18.242c-0.735,3.825-0.814,6.257-0.814,6.257
	l15.084,11.69l16.035-11.769c0,0-3.56-9.113-9.278-15.993C42.046,24.838,38.424,26.149,38.424,26.149"/>
<path fill="#E9BD14" d="M77.824,19.217c-1.324-0.294-7.649,0.883-11.768,0.441c-3.614-0.387-5.758-2.814-11.993-8.373
	c-5.253-0.559-7.425,1.053-7.425,1.053l2.234,3.588c-3.995,1.219-9.13,9.205-9.13,9.205c3.814-0.343,6.533,0.527,7.692,1.003
	c3.548,0.013,13.014,0.083,17.738,0.438c5.883,0.441,5.883-0.147,7.356-1.324C74,24.071,79.148,19.511,77.824,19.217"/>
<path fill="#FFFFFF" d="M34.938,8.306c0,0,1.382,1.335,4.871,2.328c0,0-0.542,0.974-3.252,1.089
	C33.846,11.837,34.938,8.306,34.938,8.306"/>
<path fill="#FFFFFF" d="M39.51,64.759c-4.739,0-8.581,3.841-8.581,8.58s3.841,8.58,8.581,8.58s8.581-3.842,8.581-8.58
	S44.25,64.759,39.51,64.759"/>
<path fill="#FFFFFF" d="M73.387,44.057l-14.682-0.924L39.429,57.256L22.369,43.869l-16.19,0.188c-2.755,0-4.989,2.234-4.989,4.989
	v5.691c0,2.755,2.596,20.521,5.391,23.516c2.796,2.996,32.749,24.676,32.749,24.676s30.152-21.58,34.057-24.775
	c3.904-3.195,4.988-20.661,4.988-23.416v-5.691C78.375,46.292,76.143,44.057,73.387,44.057 M46.237,84.11
	c-1.951,1.221-4.256,1.93-6.727,1.93c-7.015,0-12.701-5.688-12.701-12.701c0-7.015,5.687-12.7,12.701-12.7s12.701,5.685,12.701,12.7
	c0,2.139-0.53,4.152-1.465,5.922l2.221,6.551L46.237,84.11z"/>
</svg>
